<?xml version="1.0" encoding="UTF-8" standalone="no"?>
<!-- Created with Inkscape (http://www.inkscape.org/) -->

<svg
   width="41.206688mm"
   height="38.596275mm"
   viewBox="0 0 41.206688 38.596275"
   version="1.1"
   id="svg1"
   inkscape:version="1.3.2 (091e20e, 2023-11-25, custom)"
   xml:space="preserve"
   sodipodi:docname="right_arrow.svg"
   xmlns:inkscape="http://www.inkscape.org/namespaces/inkscape"
   xmlns:sodipodi="http://sodipodi.sourceforge.net/DTD/sodipodi-0.dtd"
   xmlns="http://www.w3.org/2000/svg"
   xmlns:svg="http://www.w3.org/2000/svg"><sodipodi:namedview
     id="namedview1"
     pagecolor="#505050"
     bordercolor="#eeeeee"
     borderopacity="1"
     inkscape:showpageshadow="0"
     inkscape:pageopacity="0"
     inkscape:pagecheckerboard="0"
     inkscape:deskcolor="#d1d1d1"
     inkscape:document-units="mm"
     showgrid="false"
     inkscape:zoom="2.7884463"
     inkscape:cx="12.551793"
     inkscape:cy="119.95928"
     inkscape:current-layer="layer1"><sodipodi:guide
       position="-49.829465,344.04399"
       orientation="0,793.70079"
       id="guide1"
       inkscape:locked="false" /><sodipodi:guide
       position="160.17054,344.04399"
       orientation="1122.5197,0"
       id="guide2"
       inkscape:locked="false" /><sodipodi:guide
       position="160.17054,47.043985"
       orientation="0,-793.70079"
       id="guide3"
       inkscape:locked="false" /><sodipodi:guide
       position="-49.829465,47.043985"
       orientation="-1122.5197,0"
       id="guide4"
       inkscape:locked="false" /></sodipodi:namedview><defs
     id="defs1" /><g
     inkscape:label="Layer 1"
     inkscape:groupmode="layer"
     id="layer1"
     transform="translate(-49.829465,-47.043985)"><path
       style="fill:#ffffff;fill-opacity:1"
       d="m 50.007003,67.795537 c 0.2822,1.17672 1.00705,2.15652 2.09663,2.83408 0.96083,0.59749 1.00817,0.59995 11.482,0.59645 5.78445,-0.002 10.51718,0.0485 10.51718,0.11203 0,0.0635 -1.47773,1.62056 -3.28384,3.46002 -3.57055,3.63647 -4.08475,4.56275 -3.74105,6.7391 0.49662,3.14464 4.03964,5.03751 6.79738,3.63154 0.51849,-0.26434 4.26437,-3.84115 8.32417,-7.94845 7.35877,-7.44488 8.83668,-9.25429 8.83668,-10.81888 0,-2.06345 -0.41389,-2.59806 -8.14153,-10.51613 -4.2819,-4.38741 -7.95652,-7.92944 -8.57934,-8.26977 -2.94667,-1.61017 -6.64124,0.35444 -7.02217,3.73409 -0.23292,2.06647 0.27528,2.93869 3.81175,6.54207 l 3.269,3.33084 -7.18997,0.17488 c -3.95448,0.0962 -8.66273,0.17489 -10.46277,0.17489 -3.67765,0 -4.60666,0.25397 -5.70539,1.55974 -1.09147,1.29713 -1.43509,2.88572 -1.00873,4.6635 z"
       id="path1" /></g></svg>
